<svg xmlns="http://www.w3.org/2000/svg" xmlns:xlink="http://www.w3.org/1999/xlink" width="86" zoomAndPan="magnify" viewBox="0 0 64.5 34.499999" height="46" preserveAspectRatio="xMidYMid meet" version="1.0"><defs><clipPath id="24e62fe167"><path d="M 0.214844 0 L 28.511719 0 L 28.511719 24.722656 L 0.214844 24.722656 Z M 0.214844 0 " clip-rule="nonzero"/></clipPath><clipPath id="0042f912e8"><path d="M 14.34375 0 L 28.46875 24.722656 L 0.214844 24.722656 Z M 14.34375 0 " clip-rule="nonzero"/></clipPath><clipPath id="c824845256"><path d="M 0.214844 0 L 28.511719 0 L 28.511719 24.722656 L 0.214844 24.722656 Z M 0.214844 0 " clip-rule="nonzero"/></clipPath><clipPath id="2b5e2c1ca1"><path d="M 14.34375 0 L 28.46875 24.722656 L 0.214844 24.722656 Z M 14.34375 0 " clip-rule="nonzero"/></clipPath><clipPath id="936fd05e8c"><rect x="0" width="29" y="0" height="25"/></clipPath><clipPath id="beaa6df1b7"><path d="M 17.207031 8.929688 L 45.503906 8.929688 L 45.503906 33.652344 L 17.207031 33.652344 Z M 17.207031 8.929688 " clip-rule="nonzero"/></clipPath><clipPath id="d0e461320c"><path d="M 31.375 33.652344 L 17.246094 8.929688 L 45.503906 8.929688 Z M 31.375 33.652344 " clip-rule="nonzero"/></clipPath><clipPath id="1c4d41ac21"><path d="M 0.246094 0.929688 L 28.503906 0.929688 L 28.503906 25.652344 L 0.246094 25.652344 Z M 0.246094 0.929688 " clip-rule="nonzero"/></clipPath><clipPath id="121fc1fbf2"><path d="M 14.375 25.652344 L 0.246094 0.929688 L 28.503906 0.929688 Z M 14.375 25.652344 " clip-rule="nonzero"/></clipPath><clipPath id="4233ccd735"><rect x="0" width="29" y="0" height="26"/></clipPath><clipPath id="2dee210e80"><path d="M 35.0625 0.183594 L 63.359375 0.183594 L 63.359375 24.90625 L 35.0625 24.90625 Z M 35.0625 0.183594 " clip-rule="nonzero"/></clipPath><clipPath id="9d6fe8008c"><path d="M 49.191406 0.183594 L 63.320312 24.90625 L 35.0625 24.90625 Z M 49.191406 0.183594 " clip-rule="nonzero"/></clipPath><clipPath id="dae17c9ff8"><path d="M 0.0625 0.183594 L 28.359375 0.183594 L 28.359375 24.90625 L 0.0625 24.90625 Z M 0.0625 0.183594 " clip-rule="nonzero"/></clipPath><clipPath id="9f896fded4"><path d="M 14.191406 0.183594 L 28.320312 24.90625 L 0.0625 24.90625 Z M 14.191406 0.183594 " clip-rule="nonzero"/></clipPath><clipPath id="bebc45dc28"><rect x="0" width="29" y="0" height="25"/></clipPath><clipPath id="e292333d0d"><path d="M 13.820312 14.441406 L 20.675781 14.441406 L 20.675781 21.296875 L 13.820312 21.296875 Z M 13.820312 14.441406 " clip-rule="nonzero"/></clipPath><clipPath id="ddfba2022e"><path d="M 17.25 14.441406 C 15.355469 14.441406 13.820312 15.972656 13.820312 17.867188 C 13.820312 19.761719 15.355469 21.296875 17.25 21.296875 C 19.140625 21.296875 20.675781 19.761719 20.675781 17.867188 C 20.675781 15.972656 19.140625 14.441406 17.25 14.441406 Z M 17.25 14.441406 " clip-rule="nonzero"/></clipPath><clipPath id="9b3515e88b"><path d="M 0.820312 0.441406 L 7.675781 0.441406 L 7.675781 7.296875 L 0.820312 7.296875 Z M 0.820312 0.441406 " clip-rule="nonzero"/></clipPath><clipPath id="be233a9d4f"><path d="M 4.25 0.441406 C 2.355469 0.441406 0.820312 1.972656 0.820312 3.867188 C 0.820312 5.761719 2.355469 7.296875 4.25 7.296875 C 6.140625 7.296875 7.675781 5.761719 7.675781 3.867188 C 7.675781 1.972656 6.140625 0.441406 4.25 0.441406 Z M 4.25 0.441406 " clip-rule="nonzero"/></clipPath><clipPath id="feceaf72a7"><rect x="0" width="8" y="0" height="8"/></clipPath><clipPath id="d1bd820440"><path d="M 42.335938 14.441406 L 49.191406 14.441406 L 49.191406 21.296875 L 42.335938 21.296875 Z M 42.335938 14.441406 " clip-rule="nonzero"/></clipPath><clipPath id="ba8af57b07"><path d="M 45.761719 14.441406 C 43.871094 14.441406 42.335938 15.972656 42.335938 17.867188 C 42.335938 19.761719 43.871094 21.296875 45.761719 21.296875 C 47.65625 21.296875 49.191406 19.761719 49.191406 17.867188 C 49.191406 15.972656 47.65625 14.441406 45.761719 14.441406 Z M 45.761719 14.441406 " clip-rule="nonzero"/></clipPath><clipPath id="0697b453dc"><path d="M 0.335938 0.441406 L 7.191406 0.441406 L 7.191406 7.296875 L 0.335938 7.296875 Z M 0.335938 0.441406 " clip-rule="nonzero"/></clipPath><clipPath id="3f754a394c"><path d="M 3.761719 0.441406 C 1.871094 0.441406 0.335938 1.972656 0.335938 3.867188 C 0.335938 5.761719 1.871094 7.296875 3.761719 7.296875 C 5.65625 7.296875 7.191406 5.761719 7.191406 3.867188 C 7.191406 1.972656 5.65625 0.441406 3.761719 0.441406 Z M 3.761719 0.441406 " clip-rule="nonzero"/></clipPath><clipPath id="2c65b0fa3b"><rect x="0" width="8" y="0" height="8"/></clipPath></defs><g clip-path="url(#24e62fe167)"><g clip-path="url(#0042f912e8)"><g><g clip-path="url(#936fd05e8c)"><g clip-path="url(#c824845256)"><g clip-path="url(#2b5e2c1ca1)"><path fill="#000000" d="M 0.214844 0 L 28.511719 0 L 28.511719 24.722656 L 0.214844 24.722656 Z M 0.214844 0 " fill-opacity="1" fill-rule="nonzero"/></g></g></g></g></g></g><g clip-path="url(#beaa6df1b7)"><g clip-path="url(#d0e461320c)"><g transform="matrix(1, 0, 0, 1, 17, 8)"><g clip-path="url(#4233ccd735)"><g clip-path="url(#1c4d41ac21)"><g clip-path="url(#121fc1fbf2)"><path fill="#000000" d="M 28.503906 25.652344 L 0.207031 25.652344 L 0.207031 0.929688 L 28.503906 0.929688 Z M 28.503906 25.652344 " fill-opacity="1" fill-rule="nonzero"/></g></g></g></g></g></g><g clip-path="url(#2dee210e80)"><g clip-path="url(#9d6fe8008c)"><g transform="matrix(1, 0, 0, 1, 35, 0)"><g clip-path="url(#bebc45dc28)"><g clip-path="url(#dae17c9ff8)"><g clip-path="url(#9f896fded4)"><path fill="#000000" d="M 0.0625 0.183594 L 28.359375 0.183594 L 28.359375 24.90625 L 0.0625 24.90625 Z M 0.0625 0.183594 " fill-opacity="1" fill-rule="nonzero"/></g></g></g></g></g></g><g clip-path="url(#e292333d0d)"><g clip-path="url(#ddfba2022e)"><g transform="matrix(1, 0, 0, 1, 13, 14)"><g clip-path="url(#feceaf72a7)"><g clip-path="url(#9b3515e88b)"><g clip-path="url(#be233a9d4f)"><path fill="#ffffff" d="M 0.820312 0.441406 L 7.675781 0.441406 L 7.675781 7.296875 L 0.820312 7.296875 Z M 0.820312 0.441406 " fill-opacity="1" fill-rule="nonzero"/></g></g></g></g></g></g><g clip-path="url(#d1bd820440)"><g clip-path="url(#ba8af57b07)"><g transform="matrix(1, 0, 0, 1, 42, 14)"><g clip-path="url(#2c65b0fa3b)"><g clip-path="url(#0697b453dc)"><g clip-path="url(#3f754a394c)"><path fill="#ffffff" d="M 0.335938 0.441406 L 7.191406 0.441406 L 7.191406 7.296875 L 0.335938 7.296875 Z M 0.335938 0.441406 " fill-opacity="1" fill-rule="nonzero"/></g></g></g></g></g></g></svg>